PathFileType	4	(x/y/z)	S06_P20_T30
DataRate	CameraRate	NumFrames	NumMarkers	Units	OrigDataRate	OrigDataStartFrame	OrigNumFrames
240	240	4	51	mm	240	304	347
Frame#	Time	Sternum			R.Acromium			L.Acromium			Top.Head			R.ASIS			L.ASIS			R.PSIS			L.PSIS			R.Great.Tro			L.Great.Tro			R.Iliac.Crest			L.Iliac.Crest			V.Sacral			R.Thigh.Upper.Post			R.Thigh.Lower.Ant			R.Thigh.Lower.Post			R.Thigh.Upper.Ant			R.Knee.Lat			R.Knee.Med			R.Shank.Upper.Post			R.Shank.Lower.Ant			R.Shank.Lower.Post			R.Shank.Upper.Ant			R.Ankle.Lat			R.Ankle.Med			R.Heel.Upper			R.Heel.Med			R.Heel.Lat			R.Toe.Lat			R.Toe.Med			R.Toe.Tip			L.Thigh.Upper.Post			L.Thigh.Lower.Ant			L.Thigh.Lower.Post			L.Thigh.Upper.Ant			L.Knee.Lat			L.Knee.Med			L.Shank.Upper.Post			L.Shank.Lower.Ant			L.Shank.Lower.Post			L.Shank.Upper.Ant			L.Ankle.Lat			L.Ankle.Med			L.Heel.Upper			L.Heel.Med			L.Heel.Lat			L.Toe.Lat			L.Toe.Med			L.Toe.Tip			Cervical.Spine			Back			
		X1	Y1	Z1	X2	Y2	Z2	X3	Y3	Z3	X4	Y4	Z4	X5	Y5	Z5	X6	Y6	Z6	X7	Y7	Z7	X8	Y8	Z8	X9	Y9	Z9	X10	Y10	Z10	X11	Y11	Z11	X12	Y12	Z12	X13	Y13	Z13	X14	Y14	Z14	X15	Y15	Z15	X16	Y16	Z16	X17	Y17	Z17	X18	Y18	Z18	X19	Y19	Z19	X20	Y20	Z20	X21	Y21	Z21	X22	Y22	Z22	X23	Y23	Z23	X24	Y24	Z24	X25	Y25	Z25	X26	Y26	Z26	X27	Y27	Z27	X28	Y28	Z28	X29	Y29	Z29	X30	Y30	Z30	X31	Y31	Z31	X32	Y32	Z32	X33	Y33	Z33	X34	Y34	Z34	X35	Y35	Z35	X36	Y36	Z36	X37	Y37	Z37	X38	Y38	Z38	X39	Y39	Z39	X40	Y40	Z40	X41	Y41	Z41	X42	Y42	Z42	X43	Y43	Z43	X44	Y44	Z44	X45	Y45	Z45	X46	Y46	Z46	X47	Y47	Z47	X48	Y48	Z48	X49	Y49	Z49	X50	Y50	Z50	X51	Y51	Z51	

304	1.2625	404.42	1287.9	289.79	287.01	1499.8	458.36	282.27	1499.6	105.75	321.8	1816.2	281.21	341.08	1054.9	413.09	345.32	1045	162.53	NaN	NaN	NaN	145.62	1086.3	240.14	290.05	989.93	465.49	246.99	984.57	107.92	261.39	1134	443.72	283.17	1124	125.21	130.64	1049.8	283.14	367.84	750.65	456.58	441.91	689.82	418.21	380.89	663.66	437.27	429.87	779.61	430.37	436.75	566.25	423.38	432.31	566.74	294.77	432.02	337.35	426.26	502.46	285.17	408.09	441.76	260.94	412.71	492.67	360.12	421	502.45	130.43	391.65	521.88	139.97	304.85	451.04	73.497	337.78	470.96	47.64	308.12	465.88	45.198	372.48	634.24	85.093	425.1	663.47	104.75	310.49	718.63	136.61	360.24	279.73	717.83	133.21	317.99	634.45	195.14	251.09	633.22	152.32	341.84	723.48	170.61	222.16	539.12	171.09	246.4	545.73	290.42	128.59	324.28	181.67	178.26	250.63	188.94	107.75	255.74	200.67	194.57	318.94	175.74	120.52	110.49	203.37	125.31	112.09	294.49	38.322	76.746	243.01	40.865	47.794	274.02	43.891	52.727	212.3	223.02	45.36	177.23	241.2	39.17	297.25	315	49.825	246.13	228.11	1552.1	283.03	163.23	1283	280.69
305	1.2667	410.16	1287.5	289.79	292.53	1499.2	458.47	287.78	1499.1	105.83	327.24	1815.7	281.47	347.1	1054.3	413.14	351.08	1044.4	162.56	NaN	NaN	NaN	151.46	1085.6	240.57	296	989.34	465.69	252.56	983.95	108.29	267.43	1133.6	443.97	288.84	1123.3	125.37	136.53	1049.3	283.66	372.16	749.44	456.93	445.89	688.31	418.32	384.72	662.44	437.34	434.22	778.11	430.73	440.52	565.07	423.17	435.8	565.48	294.42	439.76	335.99	425.72	511.23	285.12	407.63	450.93	259.72	412.02	499.97	359.87	420.56	514.51	129.93	390.89	533.49	140.5	304.15	464.03	72.085	337.09	484.49	46.867	307.15	479.75	43.821	371.56	647.64	87.072	423.45	675.76	108.52	308.82	730.51	141.22	358.53	283.73	717.37	133.49	321.64	633.66	195.19	254.6	632.92	152.55	345.97	722.58	170.62	225.07	538.86	171.3	249.49	545.33	290.64	130.22	324.55	181.9	179.45	250.62	189.14	108.99	256.15	200.92	196.17	318.82	175.94	120.81	110.78	203.62	125.67	112.29	294.7	38.454	76.996	243.31	40.957	47.989	274.26	43.964	53.061	212.54	223.07	45.367	177.32	241.33	39.072	297.32	315.16	49.482	246.13	233.62	1551.5	283.14	168.99	1282.3	280.83
306	1.2708	415.92	1287	289.79	298.06	1498.7	458.58	293.29	1498.7	105.93	332.68	1815.2	281.73	353.1	1053.8	413.22	356.85	1043.7	162.61	NaN	NaN	NaN	157.31	1085	240.99	301.92	988.73	465.91	258.15	983.32	108.67	273.47	1133.1	444.22	294.57	1122.6	125.54	142.41	1048.7	284.17	376.5	748.22	457.25	449.92	686.83	418.43	388.59	661.24	437.34	438.59	776.62	431.13	444.34	563.91	422.92	439.42	564.3	294.05	447.27	334.72	425.14	519.69	285.07	407.14	459.76	258.6	411.31	507.05	359.62	420.1	526.02	129.53	390.12	544.56	141.04	303.44	476.43	70.837	336.39	497.38	46.223	306.18	492.97	42.628	370.65	660.38	89.017	421.85	687.4	112.12	307.2	741.77	145.59	356.88	287.81	716.9	133.78	325.39	632.87	195.25	258.22	632.6	152.79	350.18	721.69	170.65	228.11	538.59	171.52	252.73	544.91	290.86	131.94	324.85	182.14	180.7	250.61	189.34	110.3	256.59	201.18	197.85	318.71	176.15	121.12	111.09	203.87	126.05	112.53	294.91	38.595	77.285	243.64	41.055	48.223	274.51	44.04	53.434	212.79	223.12	45.375	177.42	241.46	38.981	297.39	315.33	49.134	246.12	239.14	1550.9	283.25	174.77	1281.6	280.98
307	1.275	421.68	1286.5	289.81	303.61	1498.1	458.71	298.8	1498.1	106.03	338.11	1814.7	282	359.09	1053.2	413.34	362.63	1042.9	162.68	NaN	NaN	NaN	163.15	1084.3	241.4	307.81	988.09	466.14	263.77	982.66	109.04	279.49	1132.5	444.49	300.33	1121.8	125.72	148.28	1048.2	284.67	380.85	747	457.53	454.03	685.4	418.53	392.52	660.05	437.29	443	775.15	431.56	448.23	562.78	422.65	443.19	563.21	293.64	454.54	333.53	424.53	527.82	285.02	406.64	468.25	257.57	410.56	513.92	359.37	419.62	536.98	129.21	389.35	555.09	141.57	302.72	488.22	69.736	335.68	509.6	45.683	305.21	505.51	41.596	369.74	672.43	90.887	420.29	698.4	115.5	305.63	752.4	149.69	355.28	291.99	716.42	134.07	329.27	632.07	195.3	261.97	632.25	153.04	354.49	720.8	170.69	231.29	538.3	171.74	256.11	544.46	291.07	133.74	325.17	182.38	182.03	250.61	189.55	111.69	257.05	201.43	199.61	318.59	176.36	121.45	111.44	204.13	126.46	112.81	295.14	38.749	77.62	243.99	41.16	48.504	274.77	44.122	53.855	213.06	223.16	45.385	177.53	241.59	38.898	297.47	315.49	48.785	246.12	244.67	1550.3	283.38	180.56	1280.9	281.15
